<svg width="104" height="104" viewBox="0 0 104 104" fill="none" xmlns="http://www.w3.org/2000/svg">
<path opacity="0.4" d="M64.567 8.66663H39.4337C36.487 8.66663 32.327 10.4 30.247 12.48L12.4803 30.2467C10.4003 32.3267 8.66699 36.4867 8.66699 39.4333V64.5666C8.66699 67.5133 10.4003 71.6732 12.4803 73.7532L30.247 91.5199C32.327 93.5999 36.487 95.3333 39.4337 95.3333H64.567C67.5136 95.3333 71.6737 93.5999 73.7537 91.5199L91.5203 73.7532C93.6003 71.6732 95.3336 67.5133 95.3336 64.5666V39.4333C95.3336 36.4867 93.6003 32.3267 91.5203 30.2467L73.7537 12.48C71.6737 10.4 67.5136 8.66663 64.567 8.66663Z" fill="#FF0000"/>
<path d="M56.5929 51.9997L69.4629 39.1297C70.7196 37.873 70.7196 35.793 69.4629 34.5364C68.2062 33.2797 66.1262 33.2797 64.8696 34.5364L51.9996 47.4064L39.1296 34.5364C37.8729 33.2797 35.7929 33.2797 34.5362 34.5364C33.2796 35.793 33.2796 37.873 34.5362 39.1297L47.4063 51.9997L34.5362 64.8697C33.2796 66.1264 33.2796 68.2064 34.5362 69.463C35.1862 70.113 36.0096 70.4164 36.8329 70.4164C37.6562 70.4164 38.4796 70.113 39.1296 69.463L51.9996 56.593L64.8696 69.463C65.5196 70.113 66.3429 70.4164 67.1662 70.4164C67.9896 70.4164 68.8129 70.113 69.4629 69.463C70.7196 68.2064 70.7196 66.1264 69.4629 64.8697L56.5929 51.9997Z" fill="#FF0000"/>
</svg>
