<svg width="20" height="23" viewBox="0 0 20 23" fill="none" xmlns="http://www.w3.org/2000/svg">
<path d="M2.5 12.1111V13.742C2.5 14.7569 2.5 15.2644 2.68166 15.652C2.84144 15.993 3.09641 16.2702 3.41002 16.4439C3.76653 16.6414 4.23325 16.6415 5.16667 16.6415H13.5372C13.7719 16.6415 13.8893 16.6415 14.0043 16.6589C14.1064 16.6745 14.207 16.7003 14.3047 16.736C14.4147 16.7763 14.5197 16.8334 14.7297 16.9475L17.5 18.4536V6.85582C17.5 5.84092 17.5 5.33346 17.3183 4.94582C17.1586 4.60484 16.9036 4.32762 16.59 4.15388C16.2335 3.95637 15.7667 3.95637 14.8333 3.95637H10.8333M6.76777 3.84644C7.74407 4.90798 7.74407 6.62907 6.76777 7.6906C5.79146 8.75214 4.20854 8.75214 3.23223 7.6906C2.25593 6.62907 2.25593 4.90798 3.23223 3.84644C4.20854 2.78491 5.79146 2.78491 6.76777 3.84644Z" stroke="#0D123C" stroke-width="1.66667" stroke-linecap="round" stroke-linejoin="round"/>
</svg>
