<svg width="24" height="24" viewBox="0 0 24 24" fill="none" xmlns="http://www.w3.org/2000/svg">
<path d="M2 12C2 8.22876 2 6.34315 3.17157 5.17157C4.34315 4 6.22876 4 10 4H14C17.7712 4 19.6569 4 20.8284 5.17157C22 6.34315 22 8.22876 22 12V14C22 17.7712 22 19.6569 20.8284 20.8284C19.6569 22 17.7712 22 14 22H10C6.22876 22 4.34315 22 3.17157 20.8284C2 19.6569 2 17.7712 2 14V12Z" stroke="#0D123C" stroke-width="1.5"/>
<path opacity="0.5" d="M7 4V2.5" stroke="#0D123C" stroke-width="1.5" stroke-linecap="round"/>
<path opacity="0.5" d="M17 4V2.5" stroke="#0D123C" stroke-width="1.5" stroke-linecap="round"/>
<path opacity="0.5" d="M2 9H22" stroke="#0D123C" stroke-width="1.5" stroke-linecap="round"/>
<path d="M18.928 17.3454C18.928 17.392 18.9186 17.4381 18.9003 17.481L17.9311 19.7508C17.8904 19.8462 17.7968 19.908 17.6931 19.908C17.5061 19.908 17.3809 19.7158 17.4564 19.5447L18.368 17.48H17.24C17.1075 17.48 17 17.3725 17 17.24C17 17.1075 17.1075 17 17.24 17H18.5826C18.7734 17 18.928 17.1546 18.928 17.3454Z" fill="#0D123C"/>
</svg>
