<svg width="24" height="27" viewBox="0 0 24 27" fill="none" xmlns="http://www.w3.org/2000/svg">
<path d="M2 13.5318C2 9.4314 2 7.38119 3.17157 6.10734C4.34315 4.8335 6.22876 4.8335 10 4.8335H14C17.7712 4.8335 19.6569 4.8335 20.8284 6.10734C22 7.38119 22 9.4314 22 13.5318V15.7064C22 19.8068 22 21.8571 20.8284 23.1309C19.6569 24.4048 17.7712 24.4048 14 24.4048H10C6.22876 24.4048 4.34315 24.4048 3.17157 23.1309C2 21.8571 2 19.8068 2 15.7064V13.5318Z" stroke="#0D123C" stroke-width="1.5"/>
<path d="M18 17.8811H16M16 17.8811H14M16 17.8811V15.7065M16 17.8811V20.0557" stroke="#0D123C" stroke-width="1.5" stroke-linecap="round"/>
<path opacity="0.5" d="M7 4.83358V3.20264" stroke="#0D123C" stroke-width="1.5" stroke-linecap="round"/>
<path opacity="0.5" d="M17 4.83358V3.20264" stroke="#0D123C" stroke-width="1.5" stroke-linecap="round"/>
<path opacity="0.5" d="M2 10.27H22" stroke="#0D123C" stroke-width="1.5" stroke-linecap="round"/>
</svg>
