<svg width="177" height="177" viewBox="0 0 177 177" fill="none" xmlns="http://www.w3.org/2000/svg">
<path opacity="0.4" d="M79.2815 18.0687C84.3702 13.7175 92.704 13.7175 97.8665 18.0687L109.519 28.0987C111.731 30.0162 115.861 31.565 118.811 31.565H131.349C139.166 31.565 145.583 37.9812 145.583 45.7987V58.3362C145.583 61.2125 147.131 65.4162 149.049 67.6287L159.079 79.2812C163.43 84.37 163.43 92.7037 159.079 97.8662L149.049 109.519C147.131 111.731 145.583 115.861 145.583 118.811V131.349C145.583 139.166 139.166 145.582 131.349 145.582H118.811C115.935 145.582 111.731 147.131 109.519 149.049L97.8665 159.079C92.7777 163.43 84.444 163.43 79.2815 159.079L67.629 149.049C65.4165 147.131 61.2865 145.582 58.3365 145.582H45.5777C37.7602 145.582 31.344 139.166 31.344 131.349V118.737C31.344 115.861 29.7952 111.731 27.9515 109.519L17.9952 97.7925C13.7177 92.7037 13.7177 84.4437 17.9952 79.355L27.9515 67.6287C29.7952 65.4162 31.344 61.2862 31.344 58.41V45.725C31.344 37.9075 37.7602 31.4912 45.5777 31.4912H58.3365C61.2127 31.4912 65.4165 29.9425 67.629 28.025L79.2815 18.0687Z" fill="#22C24F"/>
<path d="M79.5761 111.879C78.1011 111.879 76.6999 111.289 75.6674 110.256L57.8199 92.4087C55.6811 90.27 55.6811 86.73 57.8199 84.5913C59.9586 82.4525 63.4986 82.4525 65.6374 84.5913L79.5761 98.53L111.289 66.8175C113.427 64.6788 116.967 64.6788 119.106 66.8175C121.245 68.9563 121.245 72.4962 119.106 74.635L83.4849 110.256C82.4524 111.289 81.0511 111.879 79.5761 111.879Z" fill="#22C24F"/>
</svg>
