<svg width="120" height="120" viewBox="0 0 120 120" fill="none" xmlns="http://www.w3.org/2000/svg">
<path opacity="0.4" d="M105.4 42.9002V77.1C105.4 82.7 102.4 87.9002 97.55 90.7502L67.85 107.9C63 110.7 56.9999 110.7 52.0999 107.9L22.3998 90.7502C17.5498 87.9502 14.5498 82.75 14.5498 77.1V42.9002C14.5498 37.3002 17.5498 32.1 22.3998 29.25L52.0999 12.1C56.9499 9.3 62.95 9.3 67.85 12.1L97.55 29.25C102.4 32.1 105.4 37.2502 105.4 42.9002Z" fill="#F7931E"/>
<path d="M60 68.75C57.95 68.75 56.25 67.05 56.25 65V38.75C56.25 36.7 57.95 35 60 35C62.05 35 63.75 36.7 63.75 38.75V65C63.75 67.05 62.05 68.75 60 68.75Z" fill="#F7931E"/>
<path d="M60 86.2503C59.35 86.2503 58.7 86.1002 58.1 85.8502C57.45 85.6002 56.9499 85.2504 56.4499 84.8004C55.9999 84.3004 55.65 83.7503 55.35 83.1503C55.1 82.5503 55 81.9003 55 81.2503C55 79.9503 55.4999 78.6502 56.4499 77.7002C56.9499 77.2502 57.45 76.9004 58.1 76.6504C59.95 75.8504 62.1501 76.3002 63.5501 77.7002C64.0001 78.2002 64.3499 78.7002 64.5999 79.3502C64.8499 79.9502 65 80.6003 65 81.2503C65 81.9003 64.8499 82.5503 64.5999 83.1503C64.3499 83.7503 64.0001 84.3004 63.5501 84.8004C62.6001 85.7504 61.35 86.2503 60 86.2503Z" fill="#FFB043"/>
</svg>
