<svg xmlns="http://www.w3.org/2000/svg" width="35" height="35" viewBox="0 0 35 35" fill="none">
<path d="M11.5645 17.2053H12.9747M22.8465 17.2053H17.2055" stroke="#282A3B" stroke-width="1.5" stroke-linecap="round"/>
<path d="M22.8465 11.5643H21.4362M17.2055 11.5643H11.5645" stroke="#282A3B" stroke-width="1.5" stroke-linecap="round"/>
<path d="M11.5645 22.8463H18.6157" stroke="#282A3B" stroke-width="1.5" stroke-linecap="round"/>
<path d="M4.51318 20.0258V14.3848C4.51318 9.06636 4.51318 6.40716 6.1654 4.75494C7.81763 3.10272 10.4768 3.10272 15.7952 3.10272H18.6157C23.9341 3.10272 26.5934 3.10272 28.2455 4.75494C29.1667 5.6761 29.5743 6.91026 29.7547 8.74375M29.8978 14.3848V20.0258C29.8978 25.3442 29.8978 28.0035 28.2455 29.6556C26.5934 31.3078 23.9341 31.3078 18.6157 31.3078H15.7952C10.4768 31.3078 7.81763 31.3078 6.1654 29.6556C5.24425 28.7344 4.83665 27.5003 4.65631 25.6668" stroke="#282A3B" stroke-width="1.5" stroke-linecap="round"/>
</svg>