<svg xmlns="http://www.w3.org/2000/svg" width="26" height="26" viewBox="0 0 26 26" fill="none">
  <path d="M23.3162 13.6982C23.7304 14.4845 23.9856 15.3447 24.0672 16.2297C24.1488 17.1146 24.0552 18.007 23.7917 18.8558C23.5283 19.7045 23.1002 20.4931 22.5318 21.1763C21.9635 21.8595 21.2661 22.424 20.4795 22.8376L18.3069 23.9823L17.7727 24.2632C17.2819 24.5215 16.7383 24.6635 16.1839 24.6784C15.6295 24.6932 15.0791 24.5805 14.5752 24.3488L6.09085 20.724L6.88979 18.3538L11.9356 19.3285L9.32247 14.3631L5.1156 6.36954L7.16498 5.29136L11.3719 13.2872L12.3842 12.7548L10.5296 9.22827L12.5779 8.1507L14.4324 11.6772L15.4447 11.1448L14.0127 8.42298L16.0621 7.3448L17.4941 10.0666L18.507 9.52951L17.5241 7.65639L19.573 6.58115L20.5558 8.45422L23.3156 13.7L23.3162 13.6982ZM3.72064 7.44829C3.2949 7.02218 3.00494 6.47949 2.88736 5.88873C2.76978 5.29797 2.82986 4.68562 3.06 4.12897C3.29014 3.57232 3.68004 3.09633 4.18047 2.76108C4.6809 2.42583 5.26943 2.24635 5.87178 2.24529C6.3599 2.24584 6.84077 2.36346 7.27404 2.58829C7.7073 2.81312 8.08031 3.13859 8.36177 3.5374C8.64323 3.9362 8.82492 4.3967 8.8916 4.88024C8.95828 5.36379 8.908 5.85628 8.74498 6.31638L9.28266 7.33266C9.64231 6.72974 9.83589 6.04233 9.84372 5.34033C9.85156 4.63833 9.67336 3.94677 9.32725 3.33598C8.98115 2.72518 8.47948 2.21692 7.87324 1.86288C7.26701 1.50883 6.57784 1.32163 5.87579 1.32031C4.84703 1.32046 3.85844 1.71967 3.11806 2.43393C2.37768 3.1482 1.94324 4.12182 1.90616 5.14991C1.86909 6.178 2.23227 7.18039 2.91928 7.94613C3.6063 8.71187 4.56356 9.18125 5.58964 9.25549L5.04907 8.22758C4.54655 8.08653 4.08897 7.8181 3.72064 7.44829Z" fill="#0D123C"/>
</svg>