<svg width="26" height="26" viewBox="0 0 26 26" fill="none" xmlns="http://www.w3.org/2000/svg">
<g id="vuesax/linear/message-square">
<g id="message-square">
<path id="Vector" d="M19.8033 10.5734V13.975C19.8033 14.1917 19.7925 14.4083 19.7708 14.6142C19.5758 16.9108 18.2216 18.0592 15.73 18.0592H15.3941C15.1775 18.0592 14.9716 18.1567 14.8525 18.33L13.8341 19.695C13.3791 20.3017 12.6533 20.3017 12.1983 19.695L11.18 18.33C11.0717 18.1892 10.8225 18.0592 10.6383 18.0592H10.3025C7.58333 18.0592 6.22916 17.3875 6.22916 13.9859V10.5842C6.22916 8.09251 7.37748 6.73837 9.67415 6.54337C9.87998 6.5217 10.0966 6.51087 10.3133 6.51087H15.7625C18.4383 6.50003 19.8033 7.86503 19.8033 10.5734Z" stroke="#2F5CFC" stroke-width="1.5" stroke-miterlimit="10" stroke-linecap="round" stroke-linejoin="round"/>
<path id="Vector_2" d="M9.74999 23.8334H16.25C21.6667 23.8334 23.8333 21.6667 23.8333 16.25V9.75002C23.8333 4.33335 21.6667 2.16669 16.25 2.16669H9.74999C4.33332 2.16669 2.16666 4.33335 2.16666 9.75002V16.25C2.16666 21.6667 4.33332 23.8334 9.74999 23.8334Z" stroke="#2F5CFC" stroke-width="1.5" stroke-linecap="round" stroke-linejoin="round"/>
</g>
</g>
</svg>
