<svg xmlns="http://www.w3.org/2000/svg" width="21" height="21" viewBox="0 0 21 21" fill="none">
  <g clip-path="url(#clip0_2375_10490)">
    <path d="M17.4483 15.4571L17.3793 15.4375C16.3704 15.1665 16.8421 14.9062 16.3931 14.7353C14.7994 14.1278 14.3849 13.6908 14.2789 13.4841C14.2754 13.4769 14.273 13.4686 14.2694 13.4609H6.68609C6.68251 13.4686 6.67953 13.477 6.67595 13.4841C6.56995 13.6908 6.15544 14.1279 4.56238 14.7353C4.11338 14.9062 3.77213 15.1665 2.76327 15.4375L2.6936 15.4571C1.77527 15.7608 1.15771 16.6125 1.15771 17.5737V20.2459H10.4773H18.9848V17.5737C18.9848 16.6125 18.3667 15.7608 17.4483 15.4571Z" fill="#434A54"/>
    <path d="M12.097 13.0101L8.87778 12.5188L7.52295 15.3815L10.5084 20.2459L13.4548 15.774L12.097 13.0101Z" fill="#CCD1D9"/>
    <path d="M11.3523 15.774H9.66428L9.13428 17.8066L10.5082 20.2459L11.8609 17.8066L11.3523 15.774Z" fill="#DA4453"/>
    <path d="M11.6371 14.5043L10.6988 12.9672C10.6196 12.838 10.4749 12.7629 10.323 12.7737C10.1718 12.7844 10.0389 12.8785 9.9788 13.0178L9.29153 14.6043C9.2695 14.6556 9.25757 14.7103 9.25757 14.7657V15.7739C9.25757 15.9985 9.4398 16.18 9.66434 16.18H11.2907C11.5156 16.18 11.6966 15.9984 11.6966 15.7739V14.7163C11.6966 14.6413 11.6764 14.568 11.6371 14.5043Z" fill="#ED5564"/>
    <path d="M7.66049 15.7162L10.5084 14.1648L13.5072 15.802C13.5072 15.802 14.3362 13.5955 14.2791 13.4841C14.2755 13.477 14.2731 13.4686 14.2695 13.4609L14.2564 11.6106L10.4774 11.5677L6.69928 11.6106L6.68617 13.4609C6.68259 13.4686 6.67961 13.477 6.67603 13.4841C6.62663 13.5806 7.66049 15.7162 7.66049 15.7162Z" fill="#E6E9ED"/>
    <path d="M15.72 8.02959C15.72 11.4361 12.4731 14.571 10.4772 14.571C8.4821 14.571 5.23462 11.4361 5.23462 8.02959C5.23462 4.62313 7.58226 2.37616 10.4772 2.37616C13.3724 2.37616 15.72 4.62313 15.72 8.02959Z" fill="#EAC6BB"/>
    <path d="M13.7215 1.81396C12.8294 1.0064 9.73164 -0.153697 6.85938 1.81396C4.59392 3.36597 4.82262 7.27861 4.82262 7.27861C4.82262 7.27861 7.79554 8.02957 11.2002 6.08455C13.401 4.82676 14.1681 6.10597 14.5623 7.21964C14.947 8.30355 15.72 8.02957 15.72 8.02957C15.72 8.02957 16.5741 4.39681 13.7215 1.81396Z" fill="#965353"/>
    <path d="M12.7366 5.56528C13.0486 5.55575 13.3095 5.62424 13.5298 5.74633C13.9527 4.2122 14.7853 3.79952 15.1485 3.6905C15.0306 3.45228 14.8924 3.21348 14.734 2.97705C14.1385 3.21112 13.1999 3.84716 12.7366 5.56528Z" fill="#7F4242"/>
    <path d="M10.508 20.2459L6.68589 13.4609L5.62939 14.7485L6.87049 15.7013L6.64835 16.616L10.508 20.2459Z" fill="#656D78"/>
    <path d="M10.5083 20.2459L14.2695 13.4609L15.3783 14.7485L14.1384 15.7013L14.36 16.616L10.5083 20.2459Z" fill="#656D78"/>
    <path d="M20.1475 14.6919L18.1155 12.6415C18.0393 12.5646 17.9345 12.5212 17.8261 12.5212H14.9806C14.7555 12.5212 14.5745 12.7034 14.5745 12.928V19.8391C14.5745 20.0637 14.7555 20.2459 14.9806 20.2459H19.8592C20.0844 20.2459 20.2654 20.0637 20.2654 19.8391V14.9778C20.2654 14.8706 20.2237 14.7676 20.1475 14.6919Z" fill="#FFCE54"/>
    <path d="M18.1154 12.6415C18.0391 12.5646 17.9343 12.5212 17.8259 12.5212V14.9778H20.2653C20.2653 14.8706 20.2236 14.7675 20.1473 14.6919L18.1154 12.6415Z" fill="#F6BB42"/>
  </g>
  <defs>
    <clipPath id="clip0_2375_10490">
      <rect width="19.5148" height="19.5148" fill="white" transform="translate(0.954102 0.73114)"/>
    </clipPath>
  </defs>
</svg>