<svg width="24" height="24" viewBox="0 0 24 24" fill="none" xmlns="http://www.w3.org/2000/svg">
<path d="M16.5198 5.6499L13.4198 3.2499C13.0198 2.8499 12.1198 2.6499 11.5198 2.6499H7.71976C6.51976 2.6499 5.21976 3.5499 4.91976 4.7499L2.51976 12.0499C2.01976 13.4499 2.91976 14.6499 4.41976 14.6499H8.41976C9.01976 14.6499 9.51976 15.1499 9.41976 15.8499L8.91976 19.0499C8.71976 19.9499 9.31976 20.9499 10.2198 21.2499C11.0198 21.5499 12.0198 21.1499 12.4198 20.5499L16.5198 14.4499" stroke="#E73F3F" stroke-width="1.5" stroke-miterlimit="10"/>
<path d="M21.62 5.65V15.45C21.62 16.85 21.02 17.35 19.62 17.35H18.62C17.22 17.35 16.62 16.85 16.62 15.45V5.65C16.62 4.25 17.22 3.75 18.62 3.75H19.62C21.02 3.75 21.62 4.25 21.62 5.65Z" stroke="#E73F3F" stroke-width="1.5" stroke-linecap="round" stroke-linejoin="round"/>
</svg>
