<svg width="24" height="24" viewBox="0 0 24 24" fill="none" xmlns="http://www.w3.org/2000/svg">
<g id="Frame">
<g id="SVGRepo_iconCarrier">
<path id="Vector" d="M4 21C4 17.4735 6.60771 14.5561 10 14.0709M15 7C15 9.20914 13.2091 11 11 11C8.79086 11 7 9.20914 7 7C7 4.79086 8.79086 3 11 3C13.2091 3 15 4.79086 15 7Z" stroke="#2F5CFC" stroke-width="1.5" stroke-linecap="round" stroke-linejoin="round"/>
<g id="vuesax/linear/heart">
<g id="heart">
<path id="Vector_2" d="M15.681 20.5696C15.5818 20.6046 15.4185 20.6046 15.3193 20.5696C14.4735 20.2808 12.5835 19.0763 12.5835 17.0346C12.5835 16.1333 13.3097 15.4042 14.2052 15.4042C14.736 15.4042 15.2056 15.6608 15.5002 16.0575C15.7947 15.6608 16.2672 15.4042 16.7952 15.4042C17.6906 15.4042 18.4168 16.1333 18.4168 17.0346C18.4168 19.0763 16.5268 20.2808 15.681 20.5696Z" stroke="#2F5CFC" stroke-width="0.4375" stroke-linecap="round" stroke-linejoin="round"/>
</g>
</g>
</g>
</g>
</svg>
