<svg width="63" height="63" viewBox="0 0 63 63" fill="none" xmlns="http://www.w3.org/2000/svg">
<g id="Frame">
<g id="SVGRepo_iconCarrier">
<path id="Vector" d="M33.2653 31.9529L33.2652 31.953C32.8616 32.3566 32.3499 32.5451 31.8386 32.5451C31.3273 32.5451 30.8157 32.3566 30.412 31.953C29.6313 31.1722 29.6313 29.8806 30.4119 29.0999L33.2653 31.9529ZM33.2653 31.9529L43.2402 21.9254M33.2653 31.9529L43.2402 21.9254M43.2402 21.9254C43.2403 21.9254 43.2403 21.9253 43.2403 21.9253C44.021 21.1445 44.021 19.8529 43.2402 19.0722C42.4595 18.2914 41.1678 18.2914 40.387 19.0722L40.3869 19.0723L30.412 29.0998L43.2049 21.89L43.2402 21.9254ZM42.3807 7.815L42.3807 7.81498C47.6886 6.04568 51.7663 6.61504 54.0797 8.93163C56.3931 11.2483 56.9624 15.3326 55.2062 20.6406L47.305 44.318L47.305 44.3181C45.9804 48.2983 44.4439 51.2796 42.8038 53.2648C41.1635 55.2501 39.4241 56.2342 37.6924 56.2342C35.9607 56.2342 34.2213 55.2501 32.581 53.2648C30.9409 51.2796 29.4044 48.2983 28.0798 44.3181C28.0798 44.3181 28.0798 44.3181 28.0798 44.3181L25.7437 37.2831L25.7358 37.2593L25.712 37.2514L18.677 34.9152C14.6968 33.5906 11.7155 32.0558 9.73034 30.4177C7.74497 28.7794 6.76094 27.0425 6.76094 25.3124C6.76094 23.5824 7.74498 21.8438 9.73038 20.2022C11.7156 18.5608 14.6969 17.0211 18.6771 15.69L42.3807 7.815Z" fill="white" stroke="#C3C3C3" stroke-width="0.1"/>
</g>
</g>
</svg>
