<svg width="32" height="32" viewBox="0 0 32 32" fill="none" xmlns="http://www.w3.org/2000/svg">
<g id="Frame">
<g id="SVGRepo_iconCarrier">
<path id="Vector" d="M24 2.00012H8C4.68629 2.00012 2 4.68641 2 8.00012V24.0001C2 27.3138 4.68629 30.0001 8 30.0001H24C27.3137 30.0001 30 27.3138 30 24.0001V8.00012C30 4.68641 27.3137 2.00012 24 2.00012Z" fill="url(#paint0_radial_2709_1541)"/>
<path id="Vector_2" d="M24 2.00012H8C4.68629 2.00012 2 4.68641 2 8.00012V24.0001C2 27.3138 4.68629 30.0001 8 30.0001H24C27.3137 30.0001 30 27.3138 30 24.0001V8.00012C30 4.68641 27.3137 2.00012 24 2.00012Z" fill="url(#paint1_radial_2709_1541)"/>
<path id="Vector_3" d="M24 2.00012H8C4.68629 2.00012 2 4.68641 2 8.00012V24.0001C2 27.3138 4.68629 30.0001 8 30.0001H24C27.3137 30.0001 30 27.3138 30 24.0001V8.00012C30 4.68641 27.3137 2.00012 24 2.00012Z" fill="url(#paint2_radial_2709_1541)"/>
<path id="Vector_4" d="M23 10.5001C23 11.3285 22.3284 12.0001 21.5 12.0001C20.6716 12.0001 20 11.3285 20 10.5001C20 9.67169 20.6716 9.00012 21.5 9.00012C22.3284 9.00012 23 9.67169 23 10.5001Z" fill="white"/>
<path id="Vector_5" fill-rule="evenodd" clip-rule="evenodd" d="M16 21.0001C18.7614 21.0001 21 18.7615 21 16.0001C21 13.2387 18.7614 11.0001 16 11.0001C13.2386 11.0001 11 13.2387 11 16.0001C11 18.7615 13.2386 21.0001 16 21.0001ZM16 19.0001C17.6569 19.0001 19 17.657 19 16.0001C19 14.3432 17.6569 13.0001 16 13.0001C14.3431 13.0001 13 14.3432 13 16.0001C13 17.657 14.3431 19.0001 16 19.0001Z" fill="white"/>
<path id="Vector_6" fill-rule="evenodd" clip-rule="evenodd" d="M6 15.6001C6 12.2398 6 10.5596 6.65396 9.27618C7.2292 8.1472 8.14708 7.22932 9.27606 6.65408C10.5595 6.00012 12.2397 6.00012 15.6 6.00012H16.4C19.7603 6.00012 21.4405 6.00012 22.7239 6.65408C23.8529 7.22932 24.7708 8.1472 25.346 9.27618C26 10.5596 26 12.2398 26 15.6001V16.4001C26 19.7604 26 21.4406 25.346 22.724C24.7708 23.853 23.8529 24.7709 22.7239 25.3461C21.4405 26.0001 19.7603 26.0001 16.4 26.0001H15.6C12.2397 26.0001 10.5595 26.0001 9.27606 25.3461C8.14708 24.7709 7.2292 23.853 6.65396 22.724C6 21.4406 6 19.7604 6 16.4001V15.6001ZM15.6 8.00012H16.4C18.1132 8.00012 19.2777 8.00168 20.1779 8.07522C21.0548 8.14686 21.5032 8.27671 21.816 8.43609C22.5686 8.81959 23.1805 9.43151 23.564 10.1841C23.7234 10.4969 23.8533 10.9453 23.9249 11.8222C23.9984 12.7224 24 13.8869 24 15.6001V16.4001C24 18.1133 23.9984 19.2778 23.9249 20.178C23.8533 21.0549 23.7234 21.5033 23.564 21.8161C23.1805 22.5687 22.5686 23.1806 21.816 23.5641C21.5032 23.7235 21.0548 23.8534 20.1779 23.925C19.2777 23.9985 18.1132 24.0001 16.4 24.0001H15.6C13.8868 24.0001 12.7223 23.9985 11.8221 23.925C10.9452 23.8534 10.4968 23.7235 10.184 23.5641C9.43139 23.1806 8.81947 22.5687 8.43597 21.8161C8.27659 21.5033 8.14674 21.0549 8.0751 20.178C8.00156 19.2778 8 18.1133 8 16.4001V15.6001C8 13.8869 8.00156 12.7224 8.0751 11.8222C8.14674 10.9453 8.27659 10.4969 8.43597 10.1841C8.81947 9.43151 9.43139 8.81959 10.184 8.43609C10.4968 8.27671 10.9452 8.14686 11.8221 8.07522C12.7223 8.00168 13.8868 8.00012 15.6 8.00012Z" fill="white"/>
</g>
</g>
<defs>
<radialGradient id="paint0_radial_2709_1541" cx="0" cy="0" r="1" gradientUnits="userSpaceOnUse" gradientTransform="translate(12 23.0001) rotate(-55.3758) scale(25.5196)">
<stop stop-color="#B13589"/>
<stop offset="0.79309" stop-color="#C62F94"/>
<stop offset="1" stop-color="#8A3AC8"/>
</radialGradient>
<radialGradient id="paint1_radial_2709_1541" cx="0" cy="0" r="1" gradientUnits="userSpaceOnUse" gradientTransform="translate(11 31.0001) rotate(-65.1363) scale(22.5942)">
<stop stop-color="#E0E8B7"/>
<stop offset="0.444662" stop-color="#FB8A2E"/>
<stop offset="0.71474" stop-color="#E2425C"/>
<stop offset="1" stop-color="#E2425C" stop-opacity="0"/>
</radialGradient>
<radialGradient id="paint2_radial_2709_1541" cx="0" cy="0" r="1" gradientUnits="userSpaceOnUse" gradientTransform="translate(0.5 3.00012) rotate(-8.1301) scale(38.8909 8.31836)">
<stop offset="0.156701" stop-color="#406ADC"/>
<stop offset="0.467799" stop-color="#6A45BE"/>
<stop offset="1" stop-color="#6A45BE" stop-opacity="0"/>
</radialGradient>
</defs>
</svg>
