<svg width="24" height="24" viewBox="0 0 24 24" fill="none" xmlns="http://www.w3.org/2000/svg">
<path id="Vector" d="M12.0138 0.726868C9.79986 0.726868 7.63568 1.38744 5.79488 2.62506C3.95409 3.86268 2.51937 5.62175 1.67214 7.67984C0.824918 9.73792 0.603246 12.0026 1.03516 14.1874C1.46707 16.3723 2.53316 18.3792 4.09863 19.9544C5.6641 21.5296 7.65862 22.6023 9.82998 23.0369C12.0013 23.4715 14.252 23.2484 16.2974 22.3959C18.3428 21.5435 20.091 20.0998 21.321 18.2476C22.551 16.3954 23.2075 14.2177 23.2075 11.9901C23.2043 9.00386 22.024 6.14085 19.9254 4.02927C17.8269 1.91769 14.9816 0.730021 12.0138 0.726868ZM12.0138 21.5205C10.1405 21.5205 8.30923 20.9615 6.75163 19.9143C5.19404 18.8671 3.98004 17.3787 3.26316 15.6372C2.54628 13.8958 2.35871 11.9795 2.72417 10.1308C3.08964 8.28207 3.99172 6.58392 5.31634 5.25106C6.64097 3.91821 8.32864 3.01053 10.166 2.64279C12.0033 2.27506 13.9077 2.4638 15.6384 3.18513C17.3691 3.90646 18.8484 5.128 19.8891 6.69527C20.9299 8.26254 21.4854 10.1051 21.4854 11.9901C21.4825 14.5168 20.4837 16.9393 18.708 18.7259C16.9324 20.5126 14.5249 21.5176 12.0138 21.5205ZM11.1527 12.8565V6.79168C11.1527 6.56189 11.2434 6.34152 11.4049 6.17904C11.5664 6.01656 11.7854 5.92528 12.0138 5.92528C12.2421 5.92528 12.4611 6.01656 12.6226 6.17904C12.7841 6.34152 12.8748 6.56189 12.8748 6.79168V12.8565C12.8748 13.0863 12.7841 13.3066 12.6226 13.4691C12.4611 13.6316 12.2421 13.7229 12.0138 13.7229C11.7854 13.7229 11.5664 13.6316 11.4049 13.4691C11.2434 13.3066 11.1527 13.0863 11.1527 12.8565ZM13.3053 16.7553C13.3053 17.0123 13.2296 17.2636 13.0877 17.4773C12.9458 17.691 12.744 17.8576 12.508 17.956C12.272 18.0543 12.0123 18.0801 11.7618 18.0299C11.5112 17.9798 11.2811 17.856 11.1005 17.6742C10.9198 17.4925 10.7968 17.2609 10.747 17.0088C10.6972 16.7567 10.7227 16.4954 10.8205 16.258C10.9183 16.0205 11.0838 15.8175 11.2962 15.6747C11.5086 15.5319 11.7583 15.4557 12.0138 15.4557C12.3563 15.4557 12.6848 15.5926 12.927 15.8363C13.1693 16.0801 13.3053 16.4106 13.3053 16.7553Z" fill="#FFB043"/>
</svg>
