<svg width="23" height="24" viewBox="0 0 23 24" fill="none" xmlns="http://www.w3.org/2000/svg">
<g id="vuesax/linear/like">
<g id="like">
<path id="Vector" d="M7.35938 17.9238L10.2561 20.1803C10.6298 20.5564 11.4708 20.7445 12.0314 20.7445H15.5822C16.7035 20.7445 17.9182 19.8983 18.1986 18.77L20.4412 11.9064C20.9084 10.5901 20.0674 9.46185 18.6658 9.46185H14.9281C14.3675 9.46185 13.9003 8.99174 13.9937 8.33358L14.4609 5.32489C14.6478 4.47869 14.0872 3.53848 13.2462 3.25641C12.4986 2.97435 11.5642 3.35043 11.1905 3.91456L7.35938 9.64989" stroke="#22C24F" stroke-width="1.14783" stroke-miterlimit="10"/>
<path id="Vector_2" d="M2.59399 17.9238V8.70966C2.59399 7.39336 3.15464 6.92325 4.46282 6.92325H5.39723C6.70541 6.92325 7.26606 7.39336 7.26606 8.70966V17.9238C7.26606 19.2401 6.70541 19.7102 5.39723 19.7102H4.46282C3.15464 19.7102 2.59399 19.2401 2.59399 17.9238Z" stroke="#22C24F" stroke-width="1.14783" stroke-linecap="round" stroke-linejoin="round"/>
</g>
</g>
</svg>
