<svg width="22" height="22" viewBox="0 0 22 22" fill="none" xmlns="http://www.w3.org/2000/svg">
<g id="SVGRepo_iconCarrier">
<path id="Vector" d="M7 15H4.43C2.14 15 1 13.86 1 11.57V4.43C1 2.14 2.14 1 4.43 1H9C11.29 1 12.43 2.14 12.43 4.43" stroke="#E7298A" stroke-width="1.5" stroke-linecap="round" stroke-linejoin="round"/>
<path id="Vector_2" d="M17.5698 21H12.9998C10.7098 21 9.56982 19.86 9.56982 17.57V10.43C9.56982 8.14 10.7098 7 12.9998 7H17.5698C19.8598 7 20.9998 8.14 20.9998 10.43V17.57C20.9998 19.86 19.8598 21 17.5698 21Z" stroke="#E7298A" stroke-width="1.5" stroke-linecap="round" stroke-linejoin="round"/>
<path id="Vector_3" d="M13.8701 14H17.1301" stroke="#E7298A" stroke-width="1.5" stroke-linecap="round" stroke-linejoin="round"/>
<path id="Vector_4" d="M15.5 15.6301V12.3701" stroke="#E7298A" stroke-width="1.5" stroke-linecap="round" stroke-linejoin="round"/>
</g>
</svg>
