<svg width="26" height="26" viewBox="0 0 26 26" fill="none" xmlns="http://www.w3.org/2000/svg">
<g id="Frame" clip-path="url(#clip0_2709_1571)">
<g id="SVGRepo_iconCarrier">
<g id="Group">
<path id="Vector" d="M5.14502 16.4721L5.20816 16.6503C5.20008 16.6299 5.17698 16.5676 5.14502 16.4721ZM7.64376 12.4321C7.75464 11.4742 8.13119 10.9379 8.84077 10.3881C9.85605 9.64346 11.1243 10.0647 11.1243 10.0647V7.56592C11.4326 7.5577 11.7411 7.57677 12.046 7.6229V10.8385C12.046 10.8385 10.7782 10.4173 9.76288 11.1623C9.05368 11.7118 8.67637 12.2485 8.56587 13.2064C8.56241 13.7265 8.65596 14.4065 9.08679 14.9944C8.98027 14.9374 8.8717 14.8725 8.76107 14.7996C7.81201 14.1346 7.63914 13.1371 7.64376 12.4321ZM17.2826 2.94575C16.5842 2.14723 16.3201 1.34101 16.2246 0.774658H17.1032C17.1032 0.774658 16.928 2.25966 18.2047 3.72002L18.2224 3.73965C17.8783 3.51382 17.5628 3.24726 17.2826 2.94575ZM21.515 5.20964V8.36059C21.515 8.36059 20.3939 8.31477 19.5642 8.09455C18.4057 7.78653 17.6611 7.31412 17.6611 7.31412C17.6611 7.31412 17.1467 6.97724 17.1051 6.95375V13.4605C17.1051 13.8228 17.01 14.7276 16.7201 15.4822C16.3416 16.4694 15.7575 17.1174 15.6501 17.2498C15.6501 17.2498 14.9398 18.1257 13.6866 18.7155C12.5569 19.2476 11.5651 19.2342 11.2687 19.2476C11.2687 19.2476 9.5542 19.3185 8.01145 18.2724C7.67784 18.0418 7.36643 17.7807 7.08126 17.4924L7.08896 17.4981C8.63209 18.5442 10.3462 18.4734 10.3462 18.4734C10.643 18.4599 11.6348 18.4734 12.7641 17.9413C14.0161 17.3514 14.7276 16.4755 14.7276 16.4755C14.8339 16.3431 15.4207 15.6951 15.7976 14.7075C16.0867 13.9533 16.1826 13.0481 16.1826 12.6858V6.17987C16.2242 6.20374 16.7382 6.54063 16.7382 6.54063C16.7382 6.54063 17.4832 7.01343 18.6417 7.32105C19.4718 7.54128 20.5926 7.5871 20.5926 7.5871V5.118C20.976 5.20771 21.3029 5.23197 21.515 5.20964Z" fill="#EE1D52"/>
</g>
<path id="Vector_2" d="M20.5927 5.118V7.58633C20.5927 7.58633 19.4719 7.54051 18.6419 7.32028C17.4833 7.01227 16.7383 6.53986 16.7383 6.53986C16.7383 6.53986 16.2243 6.20297 16.1828 6.1791V12.6866C16.1828 13.0489 16.0877 13.9541 15.7978 14.7083C15.4193 15.6959 14.8352 16.3439 14.7278 16.4763C14.7278 16.4763 14.0171 17.3522 12.7642 17.942C11.635 18.4741 10.6432 18.4607 10.3463 18.4741C10.3463 18.4741 8.63225 18.545 7.08912 17.4989L7.08142 17.4931C6.9185 17.3285 6.76514 17.1547 6.6221 16.9726C6.12966 16.3462 5.82781 15.6054 5.75196 15.394C5.75183 15.3931 5.75183 15.3922 5.75196 15.3913C5.62991 15.024 5.3735 14.142 5.40853 13.2876C5.47052 11.7803 5.97874 10.8551 6.11311 10.6233C6.46898 9.99126 6.93183 9.42576 7.48106 8.95197C7.96573 8.54313 8.51508 8.21784 9.10659 7.98944C9.74603 7.72126 10.4308 7.57752 11.1241 7.56592V10.0647C11.1241 10.0647 9.85583 9.645 8.84093 10.3881C8.13135 10.9379 7.75481 11.4742 7.64392 12.4321C7.6393 13.1371 7.81217 14.1346 8.76046 14.8C8.87109 14.8731 8.97966 14.938 9.08619 14.9948C9.25185 15.2195 9.45349 15.4152 9.68296 15.5742C10.6093 16.186 11.3855 16.2287 12.3781 15.8314C13.0399 15.5657 13.5381 14.967 13.7691 14.3037C13.9143 13.8894 13.9123 13.4724 13.9123 13.0412V0.774658H16.2224C16.3179 1.34101 16.582 2.14723 17.2804 2.94575C17.5606 3.24726 17.8762 3.51382 18.2203 3.73965C18.3219 3.84938 18.8417 4.39187 19.5089 4.7249C19.8539 4.89705 20.2176 5.02895 20.5927 5.118Z" fill="black"/>
<path id="Vector_3" d="M4.83276 14.6267V14.6286L4.88975 14.7907C4.8832 14.7719 4.86202 14.7145 4.83276 14.6267Z" fill="#69C9D0"/>
<path id="Vector_4" d="M9.1066 7.98946C8.51509 8.21786 7.96573 8.54315 7.48107 8.95199C6.93166 9.42685 6.46892 9.99355 6.1135 10.6268C5.97913 10.8578 5.47091 11.7838 5.40892 13.2911C5.37389 14.1454 5.6303 15.0275 5.75235 15.3948C5.75222 15.3957 5.75222 15.3966 5.75235 15.3975C5.82936 15.607 6.13005 16.3477 6.62249 16.9761C6.76553 17.1582 6.91889 17.332 7.08181 17.4966C6.5598 17.1356 6.09426 16.6991 5.70038 16.2014C5.21218 15.5804 4.9111 14.8473 4.83256 14.631C4.83246 14.6294 4.83246 14.6279 4.83256 14.6263V14.6236C4.71012 14.2567 4.45293 13.3743 4.48874 12.5188C4.55073 11.0114 5.05894 10.0862 5.19331 9.85447C5.54863 9.22114 6.01138 8.65442 6.56088 8.17965C7.04545 7.77068 7.59483 7.44537 8.18641 7.21712C8.55541 7.06402 8.93982 6.95107 9.33298 6.88023C9.92551 6.7768 10.5307 6.76783 11.126 6.85367V7.56594C10.432 7.57729 9.74664 7.72104 9.1066 7.98946Z" fill="#69C9D0"/>
<path id="Vector_5" d="M16.2244 0.774648H13.9144V13.0416C13.9144 13.4728 13.9144 13.8886 13.7711 14.304C13.5378 14.967 13.0415 15.5657 12.3801 15.8314C11.3871 16.2303 10.6109 16.186 9.68498 15.5742C9.45512 15.4159 9.25296 15.2208 9.08667 14.9967C9.87556 15.4175 10.5817 15.4102 11.4564 15.0591C12.1175 14.7934 12.6146 14.1947 12.8471 13.5313C12.9926 13.117 12.9907 12.7001 12.9907 12.2692V0H16.1806C16.1806 0 16.1447 0.304931 16.2244 0.774648ZM20.5928 4.43536V5.11799C20.2183 5.0288 19.8553 4.8969 19.5109 4.72489C18.8437 4.39186 18.3239 3.84937 18.2223 3.73964C18.3402 3.81708 18.4626 3.88753 18.5888 3.95063C19.4 4.35566 20.1989 4.47656 20.5928 4.43536Z" fill="#69C9D0"/>
<path id="Vector_6" d="M16.3041 24.0361C16.3039 24.1239 16.3169 24.2112 16.3426 24.2952C16.3439 24.3011 16.3457 24.3069 16.348 24.3125C16.4095 24.5111 16.533 24.6848 16.7004 24.8081C16.8678 24.9314 17.0703 24.9979 17.2782 24.9978V25.9831C16.7985 25.9831 16.455 26 15.9306 25.6908C15.3362 25.3382 15.0012 24.6933 15.0012 24.0237C15.0012 23.333 15.3762 22.6411 16.0119 22.3077C16.4739 22.0659 16.8239 22.0644 17.2793 22.0644V23.0493C17.0209 23.0493 16.773 23.1519 16.5903 23.3347C16.4075 23.5174 16.3049 23.7653 16.3049 24.0237L16.3041 24.0361Z" fill="#69C9D0"/>
<path id="Vector_7" d="M18.26 24.0361C18.26 24.1238 18.247 24.2112 18.2215 24.2952C18.2215 24.3009 18.218 24.3067 18.2161 24.3125C18.1545 24.511 18.0309 24.6846 17.8636 24.808C17.6962 24.9313 17.4938 24.9978 17.2859 24.9978V25.9831C17.7652 25.9831 18.109 26 18.6315 25.6908C19.2279 25.3382 19.5636 24.6933 19.5636 24.0237C19.5636 23.333 19.1886 22.6411 18.553 22.3077C18.091 22.0659 17.741 22.0644 17.2859 22.0644V23.0493C17.5443 23.0494 17.792 23.1521 17.9747 23.3348C18.1574 23.5175 18.26 23.7654 18.26 24.0237V24.0361Z" fill="#EE1D52"/>
<path id="Vector_8" d="M2.19995 21.1708H5.80792L5.4745 22.1633H4.5289V25.9623H3.36885V22.1633H2.19995V21.1708ZM11.7618 21.1708V22.1633H12.9307V25.9623H14.0923V22.1633H15.0363L15.3697 21.1708H11.7618ZM6.59296 22.3019C6.70414 22.3019 6.8128 22.2688 6.90519 22.207C6.99759 22.1452 7.06958 22.0573 7.11206 21.9546C7.15453 21.8518 7.16558 21.7388 7.14382 21.6298C7.12206 21.5208 7.06845 21.4206 6.98978 21.3421C6.91112 21.2635 6.81092 21.21 6.70186 21.1884C6.59281 21.1668 6.47979 21.178 6.37711 21.2206C6.27442 21.2633 6.18668 21.3354 6.12498 21.4279C6.06327 21.5203 6.03038 21.629 6.03046 21.7402C6.03046 21.814 6.04501 21.8872 6.07329 21.9554C6.10157 22.0236 6.14301 22.0855 6.19526 22.1377C6.2475 22.1899 6.30952 22.2312 6.37776 22.2594C6.446 22.2876 6.51913 22.302 6.59296 22.3019ZM6.03046 25.9623H7.16933V22.6993H6.03046V25.9623ZM11.2666 22.2735H9.9345L8.78639 23.4216V21.1746H7.65483L7.65136 25.9623H8.7937V24.7148L9.14907 24.391L10.2579 25.9607H11.4792L9.8729 23.6653L11.2666 22.2735ZM22.1922 23.6661L23.5848 22.2735H22.253L21.1045 23.4216V21.1746H19.9734L19.968 25.9623H21.1107V24.7148L21.4695 24.391L22.5784 25.9607H23.8L22.1922 23.6661ZM19.2638 24.023C19.2638 25.1049 18.3748 25.9823 17.2783 25.9823C16.1817 25.9823 15.2927 25.1049 15.2927 24.023C15.2927 22.9411 16.1817 22.0636 17.2783 22.0636C18.3748 22.0636 19.2638 22.9415 19.2638 24.0237V24.023ZM18.2523 24.023C18.2523 23.8303 18.1952 23.642 18.0882 23.4818C17.9811 23.3216 17.829 23.1968 17.651 23.123C17.473 23.0493 17.2772 23.03 17.0882 23.0676C16.8993 23.1052 16.7257 23.1979 16.5895 23.3342C16.4532 23.4704 16.3605 23.644 16.3229 23.8329C16.2853 24.0219 16.3046 24.2177 16.3783 24.3957C16.452 24.5737 16.5769 24.7259 16.7371 24.8329C16.8973 24.9399 17.0856 24.997 17.2783 24.997C17.5365 24.997 17.7841 24.8945 17.9668 24.712C18.1494 24.5295 18.2521 24.2819 18.2523 24.0237V24.023Z" fill="black"/>
</g>
</g>
<defs>
<clipPath id="clip0_2709_1571">
<rect width="26" height="26" fill="white"/>
</clipPath>
</defs>
</svg>
