<svg width="22" height="22" viewBox="0 0 22 22" fill="none" xmlns="http://www.w3.org/2000/svg">
<g id="Frame" clip-path="url(#clip0_2709_1519)">
<g id="SVGRepo_iconCarrier">
<path id="Vector" fill-rule="evenodd" clip-rule="evenodd" d="M10.9999 3.66667C6.94983 3.66667 3.66659 6.94991 3.66659 11C3.66659 15.0501 6.94983 18.3333 10.9999 18.3333C11.5062 18.3333 11.9166 18.7437 11.9166 19.25C11.9166 19.7563 11.5062 20.1667 10.9999 20.1667C5.93731 20.1667 1.83325 16.0626 1.83325 11C1.83325 5.93739 5.93731 1.83334 10.9999 1.83334C16.0625 1.83334 20.1666 5.93739 20.1666 11C20.1666 11.5063 19.7562 11.9167 19.2499 11.9167C18.7436 11.9167 18.3333 11.5063 18.3333 11C18.3333 6.94991 15.05 3.66667 10.9999 3.66667ZM21.646 13.9431C22.0457 14.2539 22.1176 14.8298 21.8069 15.2294L17.5291 20.7294C17.3694 20.9347 17.1301 21.0625 16.8707 21.081C16.6114 21.0996 16.3564 21.007 16.1692 20.8265L14.0303 18.764C13.6659 18.4126 13.6553 17.8323 14.0068 17.4679C14.3581 17.1034 14.9385 17.0929 15.3028 17.4444L16.7078 18.7991L20.3596 14.1039C20.6705 13.7043 21.2464 13.6323 21.646 13.9431ZM11.9166 5.5C11.9166 4.99375 11.5062 4.58334 10.9999 4.58334C10.4936 4.58334 10.0833 4.99375 10.0833 5.5V11C10.0833 11.2431 10.1799 11.4763 10.3517 11.6482L13.1017 14.3982C13.4597 14.7561 14.0401 14.7561 14.3981 14.3982C14.7561 14.0402 14.7561 13.4598 14.3981 13.1018L11.9166 10.6203V5.5Z" fill="#22C24F"/>
</g>
</g>
<defs>
<clipPath id="clip0_2709_1519">
<rect width="22" height="22" fill="white"/>
</clipPath>
</defs>
</svg>
