<svg width="29" height="29" viewBox="0 0 29 29" fill="none" xmlns="http://www.w3.org/2000/svg">
<g id="Warning">
<path id="Vector" d="M26.2605 21.0002L16.7921 4.45479C16.5555 4.04943 16.2177 3.71333 15.8122 3.4798C15.4067 3.24627 14.9476 3.12341 14.4804 3.12341C14.0132 3.12341 13.5542 3.24627 13.1487 3.4798C12.7432 3.71333 12.4054 4.04943 12.1688 4.45479L2.70042 21.0002C2.47276 21.3923 2.35278 21.8382 2.35278 22.2923C2.35278 22.7464 2.47276 23.1923 2.70042 23.5844C2.93399 23.9922 3.2712 24.3302 3.67742 24.5635C4.08365 24.7969 4.54428 24.9173 5.01203 24.9125H23.9489C24.4163 24.917 24.8764 24.7963 25.2822 24.563C25.6881 24.3296 26.0249 23.9919 26.2583 23.5844C26.4863 23.1925 26.6066 22.7467 26.607 22.2926C26.6074 21.8385 26.4878 21.3925 26.2605 21.0002ZM24.7587 22.7118C24.6762 22.8534 24.5577 22.9705 24.4154 23.0509C24.2731 23.1313 24.1121 23.1722 23.9489 23.1693H5.01203C4.84884 23.1722 4.68783 23.1313 4.54552 23.0509C4.4032 22.9705 4.2847 22.8534 4.20215 22.7118C4.12739 22.5844 4.08794 22.4392 4.08794 22.2912C4.08794 22.1433 4.12739 21.9981 4.20215 21.8707L13.6706 5.32526C13.7548 5.18426 13.8738 5.06758 14.0161 4.98657C14.1584 4.90557 14.3191 4.863 14.4826 4.863C14.6461 4.863 14.8068 4.90557 14.9491 4.98657C15.0914 5.06758 15.2104 5.18426 15.2947 5.32526L24.7631 21.8707C24.8372 21.9985 24.8759 22.1439 24.8751 22.2918C24.8744 22.4398 24.8342 22.5848 24.7587 22.7118ZM13.6143 16.1969V11.8391C13.6143 11.6079 13.7055 11.3862 13.868 11.2228C14.0304 11.0593 14.2507 10.9675 14.4804 10.9675C14.7102 10.9675 14.9305 11.0593 15.0929 11.2228C15.2554 11.3862 15.3466 11.6079 15.3466 11.8391V16.1969C15.3466 16.428 15.2554 16.6497 15.0929 16.8132C14.9305 16.9766 14.7102 17.0684 14.4804 17.0684C14.2507 17.0684 14.0304 16.9766 13.868 16.8132C13.7055 16.6497 13.6143 16.428 13.6143 16.1969ZM15.7797 20.1189C15.7797 20.3774 15.7035 20.6302 15.5607 20.8452C15.418 21.0602 15.2151 21.2278 14.9777 21.3267C14.7402 21.4257 14.479 21.4515 14.227 21.4011C13.9749 21.3507 13.7434 21.2261 13.5617 21.0433C13.38 20.8605 13.2563 20.6275 13.2061 20.3739C13.156 20.1203 13.1817 19.8575 13.2801 19.6186C13.3784 19.3797 13.5449 19.1755 13.7586 19.0319C13.9723 18.8882 14.2235 18.8115 14.4804 18.8115C14.825 18.8115 15.1555 18.9493 15.3992 19.1945C15.6428 19.4396 15.7797 19.7722 15.7797 20.1189Z" fill="#E70000"/>
</g>
</svg>
