<svg width="120" height="120" viewBox="0 0 120 120" fill="none" xmlns="http://www.w3.org/2000/svg">
<path opacity="0.4" d="M60.0001 86.7502C64.5012 86.7502 68.1501 83.1013 68.1501 78.6002C68.1501 74.0991 64.5012 70.4502 60.0001 70.4502C55.499 70.4502 51.8501 74.0991 51.8501 78.6002C51.8501 83.1013 55.499 86.7502 60.0001 86.7502Z" fill="#F7931E"/>
<path d="M83.25 47.2002H36.75C16.25 47.2002 10 53.4502 10 73.9502V83.2502C10 103.75 16.25 110 36.75 110H83.25C103.75 110 110 103.75 110 83.2502V73.9502C110 53.4502 103.75 47.2002 83.25 47.2002ZM60 93.7002C51.65 93.7002 44.9 86.9002 44.9 78.6002C44.9 70.3002 51.65 63.5002 60 63.5002C68.35 63.5002 75.1 70.3002 75.1 78.6002C75.1 86.9002 68.35 93.7002 60 93.7002Z" fill="#F7931E"/>
<path opacity="0.4" d="M35.6001 47.25V41.4C35.6001 26.75 39.7501 17 60.0001 17C80.2501 17 84.4001 26.75 84.4001 41.4V47.25C86.9501 47.3 89.2501 47.4 91.4001 47.7V41.4C91.4001 27.9 88.1501 10 60.0001 10C31.8501 10 28.6001 27.9 28.6001 41.4V47.65C30.7001 47.4 33.0501 47.25 35.6001 47.25Z" fill="#F7931E"/>
</svg>
