<svg width="120" height="120" viewBox="0 0 120 120" fill="none" xmlns="http://www.w3.org/2000/svg">
<path opacity="0.4" d="M104.55 55.5995C104.55 80.0495 86.8 102.95 62.55 109.649C60.9 110.099 59.0999 110.099 57.4499 109.649C33.1999 102.95 15.45 80.0495 15.45 55.5995V33.6496C15.45 29.5496 18.55 24.8996 22.4 23.3496L50.2499 11.9496C56.4999 9.39961 63.5499 9.39961 69.7999 11.9496L97.65 23.3496C101.45 24.8996 104.6 29.5496 104.6 33.6496L104.55 55.5995Z" fill="#12A9E7"/>
<path d="M72.5 52.5C72.5 45.6 66.9 40 60 40C53.1 40 47.5 45.6 47.5 52.5C47.5 58.1 51.2 62.75 56.25 64.35V77.5C56.25 79.55 57.95 81.25 60 81.25C62.05 81.25 63.75 79.55 63.75 77.5V64.35C68.8 62.75 72.5 58.1 72.5 52.5Z" fill="#12A9E7"/>
</svg>
