<svg xmlns="http://www.w3.org/2000/svg" width="163" height="33" viewBox="0 0 163 33" fill="none">
<path fill-rule="evenodd" clip-rule="evenodd" d="M76.7802 31.8705V0.106445L73.6162 3.92997V31.8705H76.7802ZM76.387 1.19831L76.3871 1.19821V31.4774H76.387V1.19831Z" fill="white"/>
<path fill-rule="evenodd" clip-rule="evenodd" d="M18.5158 3.78921L17.0528 1.02374L16.6685 0.303223L16.3062 1.02775L0 31.8719H3.67032L18.5158 3.78921ZM26.3204 25.502L18.4795 10.6702L20.3151 7.19775L21.3682 9.19066L21.3698 9.1876L33.3613 31.8718H29.691L26.3236 25.502H26.3204Z" fill="white"/>
<path fill-rule="evenodd" clip-rule="evenodd" d="M63.7165 25.6986H63.7069L68.8985 31.9538H64.6013L58.0322 24.0374L58.0371 24.0309L53.4939 18.5563L42.3762 31.9538H38.0791L64.3415 0.305054H68.6386L55.6414 15.967L63.7165 25.6986Z" fill="white"/>
<path d="M49.4836 13.6822L38.3794 0.303223H42.6765L51.6317 11.0936L49.4836 13.6822Z" fill="white"/>
<path fill-rule="evenodd" clip-rule="evenodd" d="M104.985 32.04V28.7498H85.1313V3.5588H104.985V0.302979H84.6972L84.6666 0.307702C84.1856 0.381992 83.7365 0.558371 83.3451 0.812479L83.3443 0.812977C82.8645 1.12608 82.468 1.55763 82.1973 2.06569L82.1964 2.06742C82.0314 2.38085 81.9128 2.72555 81.8516 3.08873L81.8513 3.09071C81.8219 3.27056 81.8052 3.45738 81.8052 3.64917V28.6938C81.8052 28.8696 81.8179 29.0447 81.8462 29.2169C81.8779 29.4192 81.9279 29.6148 81.992 29.8018L81.9925 29.8032C82.3968 30.968 83.4168 31.8421 84.6666 32.0352L84.6972 32.04H104.985ZM128.523 32.04H108.23V28.7498H128.089V3.5588H108.23V0.302979H128.523L128.553 0.307702C129.034 0.381992 129.484 0.558372 129.875 0.81248L129.876 0.812976C130.356 1.12608 130.752 1.55763 131.023 2.06569L131.024 2.06741C131.189 2.38085 131.307 2.72555 131.368 3.08873L131.369 3.09071C131.398 3.27056 131.415 3.45738 131.415 3.64917V28.6938C131.415 28.8696 131.402 29.0449 131.374 29.2171C131.342 29.4194 131.292 29.6149 131.228 29.8018L131.228 29.8032C130.823 30.968 129.803 31.8421 128.553 32.0352L128.523 32.04ZM123.334 17.6069H92.5258L90.0693 14.6453H120.878L123.334 17.6069ZM120.688 15.0484L120.688 15.0486H90.9277L92.7153 17.2038H92.7152L90.9275 15.0484H120.688Z" fill="white"/>
<path d="M139.683 8.47291V31.9513H136.439V0L160.264 28.709L160.284 28.7339L160.286 28.7357L162.889 31.9513H159.059L143.936 13.7291L139.683 8.47291Z" fill="white"/>
<path d="M159.756 23.0481V4.2161L163 0.305699V26.9642L159.756 23.0481Z" fill="white"/>
</svg>