<svg width="29" height="29" viewBox="0 0 29 29" fill="none" xmlns="http://www.w3.org/2000/svg">
<path d="M12.9381 2.55347C13.8137 1.81551 15.227 1.81551 16.0776 2.55347L18.0538 4.24202C18.429 4.55472 19.142 4.81738 19.6423 4.81738H21.7686C23.0944 4.81738 24.1826 5.90556 24.1826 7.23138V9.35771C24.1826 9.85802 24.4453 10.5585 24.758 10.9337L26.4465 12.9099C27.1845 13.7854 27.1845 15.1988 26.4465 16.0494L24.758 18.0256C24.4453 18.4008 24.1826 19.1013 24.1826 19.6016V21.7279C24.1826 23.0537 23.0944 24.1419 21.7686 24.1419H19.6423C19.142 24.1419 18.4415 24.4046 18.0663 24.7173L16.0901 26.4058C15.2145 27.1438 13.8012 27.1438 12.9506 26.4058L10.9743 24.7173C10.5991 24.4046 9.88616 24.1419 9.39836 24.1419H7.2095C5.88367 24.1419 4.79549 23.0537 4.79549 21.7279V19.5891C4.79549 19.1013 4.54534 18.3883 4.23264 18.0256L2.54409 16.0368C1.81864 15.1738 1.81864 13.7729 2.54409 12.9099L4.23264 10.9212C4.54534 10.546 4.79549 9.84551 4.79549 9.35771V7.24389C4.79549 5.91807 5.88367 4.82989 7.2095 4.82989H9.37334C9.87366 4.82989 10.5741 4.56722 10.9493 4.25453L12.9381 2.55347Z" stroke="white" stroke-width="2.25" stroke-linecap="round" stroke-linejoin="round"/>
<g opacity="0.4">
<path d="M14.5005 9.65796V15.6992" stroke="white" stroke-width="2.25" stroke-linecap="round" stroke-linejoin="round"/>
<path d="M14.4932 19.5017H14.5038" stroke="white" stroke-width="3" stroke-linecap="round" stroke-linejoin="round"/>
</g>
</svg>
