<svg width="120" height="120" viewBox="0 0 120 120" fill="none" xmlns="http://www.w3.org/2000/svg">
<path d="M83.25 101V102.45C75.85 107.2 67 110 57.5 110C47.85 110 38.85 107.1 31.35 102.15V101C31.35 89.3498 43 79.8496 57.3 79.8496C71.65 79.8496 83.25 89.3498 83.25 101Z" fill="#12A9E7"/>
<path opacity="0.4" d="M105 62.5C105 79.25 96.35 93.95 83.25 102.45V101C83.25 89.3501 71.65 79.8499 57.3 79.8499C43 79.8499 31.35 89.3501 31.35 101V102.15C18.5 93.65 10 79.1 10 62.5C10 36.25 31.25 15 57.5 15C64.05 15 70.3 16.3 76 18.7C75.35 20.7 75 22.8 75 25C75 28.75 76.05 32.3 77.9 35.3C78.9 37 80.2 38.5499 81.7 39.8499C85.2 43.0499 89.85 45 95 45C97.2 45 99.3 44.6499 101.25 43.9499C103.65 49.6499 105 55.95 105 62.5Z" fill="#12A9E7"/>
<path d="M109.85 11.6501C106.25 7.55009 100.9 5 95 5C89.4 5 84.3 7.30011 80.65 11.0501C78.55 13.2001 76.95 15.8 76 18.7C75.35 20.7 75 22.8 75 25C75 28.75 76.05 32.3 77.9 35.3C78.9 37 80.2 38.5499 81.7 39.8499C85.2 43.0499 89.85 45 95 45C97.2 45 99.3 44.6499 101.25 43.9499C105.85 42.4999 109.7 39.35 112.1 35.3C113.15 33.6 113.95 31.65 114.4 29.65C114.8 28.15 115 26.6 115 25C115 19.9 113.05 15.2001 109.85 11.6501ZM102.45 28.6499H98.75V32.55C98.75 34.6 97.05 36.3 95 36.3C92.95 36.3 91.25 34.6 91.25 32.55V28.6499H87.55C85.5 28.6499 83.8 26.9499 83.8 24.8999C83.8 22.8499 85.5 21.1499 87.55 21.1499H91.25V17.6001C91.25 15.5501 92.95 13.8501 95 13.8501C97.05 13.8501 98.75 15.5501 98.75 17.6001V21.1499H102.45C104.5 21.1499 106.2 22.8499 106.2 24.8999C106.2 26.9499 104.55 28.6499 102.45 28.6499Z" fill="#12A9E7"/>
<path d="M57.3 73.6498C65.0596 73.6498 71.35 67.3594 71.35 59.5998C71.35 51.8402 65.0596 45.5498 57.3 45.5498C49.5404 45.5498 43.25 51.8402 43.25 59.5998C43.25 67.3594 49.5404 73.6498 57.3 73.6498Z" fill="#12A9E7"/>
</svg>
