<svg xmlns="http://www.w3.org/2000/svg" width="36" height="36" viewBox="0 0 36 36" fill="none">
<path d="M16.1263 3.67474C17.1763 2.78974 18.8713 2.78974 19.8913 3.67474L22.2613 5.69974C22.7113 6.07474 23.5663 6.38974 24.1663 6.38974H26.7163C28.3063 6.38974 29.6114 7.69474 29.6114 9.28474V11.8347C29.6114 12.4347 29.9263 13.2747 30.3013 13.7247L32.3263 16.0947C33.2113 17.1447 33.2113 18.8397 32.3263 19.8597L30.3013 22.2297C29.9263 22.6797 29.6114 23.5197 29.6114 24.1197V26.6697C29.6114 28.2597 28.3063 29.5647 26.7163 29.5647H24.1663C23.5663 29.5647 22.7263 29.8797 22.2763 30.2547L19.9063 32.2797C18.8563 33.1647 17.1613 33.1647 16.1413 32.2797L13.7713 30.2547C13.3213 29.8797 12.4663 29.5647 11.8813 29.5647H9.25629C7.66629 29.5647 6.36129 28.2597 6.36129 26.6697V24.1047C6.36129 23.5197 6.06129 22.6647 5.68629 22.2297L3.66129 19.8447C2.79129 18.8097 2.79129 17.1297 3.66129 16.0947L5.68629 13.7097C6.06129 13.2597 6.36129 12.4197 6.36129 11.8347V9.29974C6.36129 7.70974 7.66629 6.40474 9.25629 6.40474H11.8513C12.4513 6.40474 13.2913 6.08974 13.7413 5.71474L16.1263 3.67474Z" stroke="#0D123C" stroke-width="2.25" stroke-linecap="round" stroke-linejoin="round"/>
<g opacity="0.4">
<path d="M18 12.1948V19.4399" stroke="#0D123C" stroke-width="2.25" stroke-linecap="round" stroke-linejoin="round"/>
<path d="M17.9912 24H18.004" stroke="#0D123C" stroke-width="3" stroke-linecap="round" stroke-linejoin="round"/>
</g>
</svg>