<svg xmlns="http://www.w3.org/2000/svg" width="28" height="28" viewBox="0 0 28 28" fill="none">
  <g clip-path="url(#clip0_2774_2451)">
    <path d="M22.167 9.3335C20.234 9.3335 18.667 7.76649 18.667 5.8335C18.667 3.9005 20.234 2.3335 22.167 2.3335C24.1 2.3335 25.667 3.9005 25.667 5.8335C25.667 7.76649 24.1 9.3335 22.167 9.3335Z" stroke="#1C274C" stroke-width="3"/>
    <path d="M16.3335 2.56688C15.5796 2.41383 14.7992 2.3335 14.0002 2.3335C7.55684 2.3335 2.3335 7.55684 2.3335 14.0002C2.3335 15.8665 2.77172 17.6304 3.55087 19.1947C3.75793 19.6104 3.82684 20.0856 3.7068 20.5342L3.01192 23.1313C2.71027 24.2587 3.74167 25.29 4.86907 24.9884L7.46612 24.2935C7.91475 24.1735 8.38991 24.2424 8.80562 24.4494C10.3699 25.2286 12.1338 25.6668 14.0002 25.6668C20.4434 25.6668 25.6668 20.4434 25.6668 14.0002C25.6668 13.2011 25.5864 12.4207 25.4335 11.6668" stroke="#1C274C" stroke-width="3" stroke-linecap="round"/>
  </g>
  <defs>
    <clipPath id="clip0_2774_2451">
      <rect width="28" height="28" fill="white"/>
    </clipPath>
  </defs>
</svg>