<svg xmlns="http://www.w3.org/2000/svg" width="35" height="36" viewBox="0 0 35 36" fill="none">
  <path d="M5.83325 9.39583C5.83325 8.57909 5.83325 8.17072 5.9922 7.85876C6.13202 7.58436 6.35512 7.36127 6.62952 7.22144C6.94147 7.0625 7.34985 7.0625 8.16659 7.0625H12.2499C13.0667 7.0625 13.475 7.0625 13.787 7.22144C14.0614 7.36127 14.2845 7.58436 14.4243 7.85876C14.5833 8.17072 14.5833 8.57909 14.5833 9.39583V13.4792C14.5833 14.2959 14.5833 14.7043 14.4243 15.0162C14.2845 15.2907 14.0614 15.5137 13.787 15.6535C13.475 15.8125 13.0667 15.8125 12.2499 15.8125H8.16659C7.34985 15.8125 6.94147 15.8125 6.62952 15.6535C6.35512 15.5137 6.13202 15.2907 5.9922 15.0162C5.83325 14.7043 5.83325 14.2959 5.83325 13.4792V9.39583Z" stroke="black" stroke-width="2.91667" stroke-linecap="round" stroke-linejoin="round"/>
  <path d="M18.9583 9.25C18.9583 8.5705 18.9583 8.23076 19.0692 7.96276C19.2173 7.60542 19.5012 7.32151 19.8585 7.17351C20.1265 7.0625 20.4663 7.0625 21.1458 7.0625H26.9791C27.6585 7.0625 27.9983 7.0625 28.2664 7.17351C28.6236 7.32151 28.9076 7.60542 29.0556 7.96276C29.1666 8.23076 29.1666 8.5705 29.1666 9.25C29.1666 9.9295 29.1666 10.2692 29.0556 10.5372C28.9076 10.8946 28.6236 11.1785 28.2664 11.3265C27.9983 11.4375 27.6585 11.4375 26.9791 11.4375H21.1458C20.4663 11.4375 20.1265 11.4375 19.8585 11.3265C19.5012 11.1785 19.2173 10.8946 19.0692 10.5372C18.9583 10.2692 18.9583 9.9295 18.9583 9.25Z" stroke="black" stroke-width="2.91667" stroke-linecap="round" stroke-linejoin="round"/>
  <path d="M18.9583 18C18.9583 17.3206 18.9583 16.9808 19.0692 16.7127C19.2173 16.3554 19.5012 16.0715 19.8585 15.9235C20.1265 15.8125 20.4663 15.8125 21.1458 15.8125H26.9791C27.6585 15.8125 27.9983 15.8125 28.2664 15.9235C28.6236 16.0715 28.9076 16.3554 29.0556 16.7127C29.1666 16.9808 29.1666 17.3206 29.1666 18C29.1666 18.6794 29.1666 19.0192 29.0556 19.2873C28.9076 19.6446 28.6236 19.9285 28.2664 20.0765C27.9983 20.1875 27.6585 20.1875 26.9791 20.1875H21.1458C20.4663 20.1875 20.1265 20.1875 19.8585 20.0765C19.5012 19.9285 19.2173 19.6446 19.0692 19.2873C18.9583 19.0192 18.9583 18.6794 18.9583 18Z" stroke="black" stroke-width="2.91667" stroke-linecap="round" stroke-linejoin="round"/>
  <path d="M18.9583 26.75C18.9583 26.0706 18.9583 25.7308 19.0692 25.4627C19.2173 25.1054 19.5012 24.8215 19.8585 24.6735C20.1265 24.5625 20.4663 24.5625 21.1458 24.5625H26.9791C27.6585 24.5625 27.9983 24.5625 28.2664 24.6735C28.6236 24.8215 28.9076 25.1054 29.0556 25.4627C29.1666 25.7308 29.1666 26.0706 29.1666 26.75C29.1666 27.4294 29.1666 27.7692 29.0556 28.0373C28.9076 28.3946 28.6236 28.6785 28.2664 28.8265C27.9983 28.9375 27.6585 28.9375 26.9791 28.9375H21.1458C20.4663 28.9375 20.1265 28.9375 19.8585 28.8265C19.5012 28.6785 19.2173 28.3946 19.0692 28.0373C18.9583 27.7692 18.9583 27.4294 18.9583 26.75Z" stroke="black" stroke-width="2.91667" stroke-linecap="round" stroke-linejoin="round"/>
  <path d="M5.83325 22.5208C5.83325 21.704 5.83325 21.2957 5.9922 20.9837C6.13202 20.7093 6.35512 20.4863 6.62952 20.3465C6.94147 20.1875 7.34985 20.1875 8.16659 20.1875H12.2499C13.0667 20.1875 13.475 20.1875 13.787 20.3465C14.0614 20.4863 14.2845 20.7093 14.4243 20.9837C14.5833 21.2957 14.5833 21.704 14.5833 22.5208V26.6042C14.5833 27.421 14.5833 27.8293 14.4243 28.1413C14.2845 28.4157 14.0614 28.6387 13.787 28.7785C13.475 28.9375 13.0667 28.9375 12.2499 28.9375H8.16659C7.34985 28.9375 6.94147 28.9375 6.62952 28.7785C6.35512 28.6387 6.13202 28.4157 5.9922 28.1413C5.83325 27.8293 5.83325 27.421 5.83325 26.6042V22.5208Z" stroke="black" stroke-width="2.91667" stroke-linecap="round" stroke-linejoin="round"/>
</svg>