<svg xmlns="http://www.w3.org/2000/svg" width="29" height="30" viewBox="0 0 29 30" fill="none">
  <g clip-path="url(#clip0_2774_2415)">
    <path fill-rule="evenodd" clip-rule="evenodd" d="M12.0858 1.747V12.5314C12.0887 12.8619 11.9605 13.1801 11.7293 13.4164C11.498 13.6526 11.1826 13.7875 10.8521 13.7917H1.23254C0.997638 13.7913 0.767951 13.7224 0.571577 13.5935C0.359841 13.4541 0.194675 13.2545 0.0973389 13.0204C2.85388e-06 12.7863 -0.0250481 12.5285 0.0254105 12.28C0.0616605 12.0456 0.111202 11.8148 0.174035 11.5865C0.75831 9.01165 2.01258 6.63696 3.80985 4.70283C5.60711 2.76871 7.88354 1.34383 10.4086 0.5725C10.5522 0.527207 10.7015 0.50279 10.8521 0.5C11.015 0.500632 11.1763 0.533415 11.3265 0.59647C11.4768 0.659525 11.6131 0.751613 11.7277 0.867456C11.8423 0.983299 11.933 1.12062 11.9944 1.27155C12.0558 1.42248 12.0869 1.58405 12.0858 1.747Z" fill="#0D123C"/>
    <path fill-rule="evenodd" clip-rule="evenodd" d="M28.9298 13.6102C28.6061 10.5816 27.3536 7.72718 25.3439 5.43841C23.3342 3.14964 20.6657 1.53855 17.7043 0.826045C17.2065 0.705212 16.7014 0.610962 16.1939 0.548129C15.8867 0.487863 15.5707 0.487863 15.2635 0.548129C15.0141 0.618785 14.7991 0.77813 14.6589 0.996201C14.5187 1.21427 14.463 1.47604 14.5023 1.7323V15.0119C14.5036 15.1704 14.4731 15.3275 14.4127 15.474C14.3523 15.6206 14.2632 15.7535 14.1505 15.865C14.0379 15.9765 13.9041 16.0643 13.757 16.1232C13.6098 16.1822 13.4524 16.211 13.2939 16.2081H1.15018C-0.674401 16.2081 0.135182 18.5221 0.473515 19.525C1.19104 21.6786 2.40143 23.6349 4.00831 25.2382C5.61519 26.8415 7.57419 28.0476 9.72935 28.7603C12.838 29.7866 16.1998 29.7489 19.2847 28.6532C22.3696 27.5575 25.002 25.4662 26.7668 22.709C28.2265 20.3981 29.0015 17.721 29.0023 14.9877C29.0023 14.5285 28.9781 14.0682 28.9298 13.6102ZM14.3331 27.0469C11.7531 27.0499 9.23819 26.237 7.14818 24.7242C5.05816 23.2115 3.50009 21.0766 2.69685 18.6248H13.161C14.1367 18.6309 15.0761 18.2551 15.7783 17.5777C16.4805 16.9003 16.8899 15.9751 16.9189 14.9998V2.91646C19.8613 3.55536 22.4636 5.25941 24.2256 7.70098C25.9876 10.1425 26.7848 13.1493 26.464 16.1431C26.1432 19.1369 24.727 21.9064 22.4877 23.9192C20.2484 25.932 17.344 27.0459 14.3331 27.0469Z" fill="#0D123C"/>
  </g>
  <defs>
    <clipPath id="clip0_2774_2415">
      <rect width="29" height="29" fill="white" transform="translate(0 0.5)"/>
    </clipPath>
  </defs>
</svg>