<svg xmlns="http://www.w3.org/2000/svg" width="63" height="63" viewBox="0 0 63 63" fill="none">
<path d="M33.2656 31.9529L33.2655 31.953C32.8619 32.3566 32.3502 32.5451 31.8389 32.5451C31.3276 32.5451 30.8159 32.3566 30.4123 31.953C29.6315 31.1722 29.6315 29.8806 30.4122 29.0999L33.2656 31.9529ZM33.2656 31.9529L43.2405 21.9254M33.2656 31.9529L43.2405 21.9254M43.2405 21.9254C43.2405 21.9254 43.2406 21.9253 43.2406 21.9253C44.0213 21.1445 44.0212 19.8529 43.2405 19.0722C42.4597 18.2914 41.1681 18.2914 40.3873 19.0722L40.3872 19.0723L30.4123 29.0998L43.2051 21.89L43.2405 21.9254ZM42.3809 7.815L42.3809 7.81498C47.6889 6.04568 51.7666 6.61504 54.0799 8.93163C56.3933 11.2483 56.9626 15.3326 55.2064 20.6406L47.3052 44.318L47.3052 44.3181C45.9806 48.2983 44.4442 51.2796 42.804 53.2648C41.1637 55.2501 39.4243 56.2342 37.6926 56.2342C35.961 56.2342 34.2216 55.2501 32.5813 53.2648C30.9411 51.2796 29.4046 48.2983 28.0801 44.3181C28.0801 44.3181 28.0801 44.3181 28.0801 44.3181L25.7439 37.2831L25.736 37.2593L25.7123 37.2514L18.6773 34.9152C14.697 33.5906 11.7158 32.0558 9.73058 30.4177C7.74521 28.7794 6.76118 27.0425 6.76118 25.3124C6.76118 23.5824 7.74523 21.8438 9.73062 20.2022C11.7158 18.5608 14.6971 17.0211 18.6774 15.69L42.3809 7.815Z" fill="#0D123C" stroke="#C7C7C7" stroke-width="0.1"/>
</svg>